Coordinates
version=1
nRows=24
nColumns=24
inDegrees=yes

Units are S.I. units (second, meters, Newtons, ...)
If the header above contains a line with 'inDegrees', this indicates whether rotational values are in degrees (yes) or radians (no).

endheader
time	pelvis_tilt	pelvis_list	pelvis_rotation	pelvis_tx	pelvis_ty	pelvis_tz	lumbar_extension	lumbar_bending	lumbar_rotation	arm_flex_r	arm_add_r	arm_rot_r	elbow_flex_r	pro_sup_r	wrist_flex_r	wrist_dev_r	arm_flex_l	arm_add_l	arm_rot_l	elbow_flex_l	pro_sup_l	wrist_flex_l	wrist_dev_l
     43.22400000	     -5.65046021	      0.19667024	     -2.54405585	      0.52280379	      0.86628514	      0.11630715	     -2.27042064	     -1.00297949	     -0.06774477	     17.25550402	     -2.56575536	     -3.30685101	    143.45914360	     31.68459712	    -15.89183491	    -24.99999983	     -3.76758157	    -15.41735020	      9.90017857	     44.10555414	     90.00000018	     -0.66179521	    -24.99999983
     43.22800000	     -5.65129867	      0.19548494	     -2.54174318	      0.52270642	      0.86627103	      0.11630821	     -2.27179519	     -1.00431575	     -0.06549065	     17.25519855	     -2.56508769	     -3.30659255	    143.45881585	     31.68475536	    -15.89207604	    -24.99999983	     -3.77014256	    -15.41550508	      9.90079953	     44.10516569	     90.00000018	     -0.66181082	    -24.99999983
     43.23200000	     -5.65894932	      0.19228631	     -2.53340879	      0.52258826	      0.86627860	      0.11633574	     -2.27989433	     -1.00832445	     -0.05735708	     17.25356415	     -2.56126484	     -3.30609426	    143.45615554	     31.68554716	    -15.89337684	    -24.99999983	     -3.77648331	    -15.40691425	      9.90305700	     44.10555672	     90.00000018	     -0.66196930	    -24.99999983
     43.23600000	     -5.65872941	      0.19197024	     -2.53243757	      0.52250389	      0.86627694	      0.11632104	     -2.28011570	     -1.00862045	     -0.05632992	     17.25295674	     -2.56066226	     -3.30620748	    143.45588408	     31.68570242	    -15.89358767	    -24.99999983	     -3.77752205	    -15.40598843	      9.90328534	     44.10568904	     90.00000018	     -0.66200637	    -24.99999983
     43.24000000	     -5.65934805	      0.19161134	     -2.53038861	      0.52240304	      0.86626939	      0.11629988	     -2.28129491	     -1.00901382	     -0.05417825	     17.25236344	     -2.55993506	     -3.30639908	    143.45517807	     31.68583924	    -15.89385176	    -24.99999983	     -3.77978825	    -15.40483804	      9.90373227	     44.10571501	     90.00000018	     -0.66201792	    -24.99999983
     43.24400000	     -5.66783969	      0.19094288	     -2.52151108	      0.52227163	      0.86627377	      0.11630395	     -2.29043914	     -1.01045393	     -0.04524847	     17.24992823	     -2.55574466	     -3.30847767	    143.44977170	     31.68660356	    -15.89550265	    -24.99999983	     -3.78669576	    -15.39645793	      9.90648014	     44.10871864	     90.00000018	     -0.66200554	    -24.99999983
     43.24800000	     -5.66746984	      0.19065128	     -2.52070544	      0.52219039	      0.86627676	      0.11629520	     -2.29046905	     -1.01073821	     -0.04442339	     17.24937372	     -2.55511346	     -3.30891466	    143.44923788	     31.68675186	    -15.89573255	    -24.99999983	     -3.78759938	    -15.39529631	      9.90685723	     44.10923131	     90.00000018	     -0.66200194	    -24.99999983
     43.25200000	     -5.66795604	      0.19024420	     -2.51881959	      0.52209535	      0.86626805	      0.11629162	     -2.29148530	     -1.01124425	     -0.04254214	     17.24885963	     -2.55421397	     -3.30936928	    143.44827906	     31.68688772	    -15.89601390	    -24.99999983	     -3.78971959	    -15.39350031	      9.90753003	     44.10949299	     90.00000018	     -0.66197129	    -24.99999983
     43.25600000	     -5.67570586	      0.18918904	     -2.50983202	      0.52197144	      0.86626915	      0.11629768	     -2.29984970	     -1.01304928	     -0.03353984	     17.24743963	     -2.54870846	     -3.31294595	    143.44130261	     31.68773468	    -15.89785695	    -24.99999983	     -3.79713789	    -15.38283868	      9.91126167	     44.11306109	     90.00000018	     -0.66176203	    -24.99999983
     43.26000000	     -5.67525059	      0.18900615	     -2.50892315	      0.52189590	      0.86628287	      0.11629324	     -2.29971220	     -1.01324360	     -0.03263421	     17.24727118	     -2.54805664	     -3.31358420	    143.44066000	     31.68789306	    -15.89809385	    -24.99999983	     -3.79825942	    -15.38164027	      9.91171388	     44.11345796	     90.00000018	     -0.66173886	    -24.99999983
     43.26400000	     -5.67563185	      0.18857219	     -2.50704581	      0.52180077	      0.86626684	      0.11628054	     -2.30066365	     -1.01373122	     -0.03070914	     17.24701185	     -2.54694929	     -3.31421497	    143.43957447	     31.68804131	    -15.89838335	    -24.99999983	     -3.80066218	    -15.37984726	      9.91248468	     44.11350884	     90.00000018	     -0.66168649	    -24.99999983
     43.26800000	     -5.68368903	      0.18720236	     -2.49777158	      0.52167706	      0.86625728	      0.11628527	     -2.30937787	     -1.01586901	     -0.02141906	     17.24728396	     -2.53961431	     -3.31877052	    143.43207123	     31.68894435	    -15.90018620	    -24.99999983	     -3.81073500	    -15.36748741	      9.91722616	     44.11543581	     90.00000018	     -0.66137680	    -24.99999983
     43.27200000	     -5.68343807	      0.18666982	     -2.49647013	      0.52158254	      0.86625925	      0.11629057	     -2.30958938	     -1.01648410	     -0.02019224	     17.24724255	     -2.53842769	     -3.31956381	    143.43124150	     31.68912627	    -15.90043631	    -24.99999983	     -3.81275391	    -15.36522380	      9.91800385	     44.11556633	     90.00000018	     -0.66134869	    -24.99999983
     43.27600000	     -5.69047329	      0.18432462	     -2.48820606	      0.52147143	      0.86624060	      0.11629912	     -2.31721841	     -1.01952453	     -0.01198715	     17.24841885	     -2.52962608	     -3.32500899	    143.42377842	     31.69025101	    -15.90221468	    -24.99999983	     -3.82282144	    -15.35054947	      9.92268544	     44.11679457	     90.00000018	     -0.66123331	    -24.99999983
     43.28000000	     -5.69117872	      0.18571335	     -2.48674376	      0.52141327	      0.86626317	      0.11626297	     -2.31818029	     -1.01807941	     -0.01025456	     17.24891983	     -2.52676452	     -3.32783030	    143.42120674	     31.69079199	    -15.90291774	    -24.99999983	     -3.82542144	    -15.34783451	      9.92373653	     44.11722157	     90.00000018	     -0.66123712	    -24.99999983
     43.28400000	     -5.69110657	      0.18593437	     -2.48580645	      0.52135119	      0.86624993	      0.11623905	     -2.31851970	     -1.01779969	     -0.00917683	     17.24922327	     -2.52585525	     -3.32884043	    143.42023291	     31.69099218	    -15.90317645	    -24.99999983	     -3.82732680	    -15.34708335	      9.92426200	     44.11685005	     90.00000018	     -0.66120210	    -24.99999983
     43.28800000	     -5.69186682	      0.18628225	     -2.48363934	      0.52126108	      0.86624564	      0.11619647	     -2.31980326	     -1.01740212	     -0.00674639	     17.24976890	     -2.52490807	     -3.32993386	    143.41886917	     31.69118214	    -15.90347780	    -24.99999983	     -3.83102075	    -15.34654566	      9.92503710	     44.11605725	     90.00000018	     -0.66112136	    -24.99999983
     43.29200000	     -5.69978742	      0.18942204	     -2.47593084	      0.52117220	      0.86621506	      0.11616776	     -2.32850839	     -1.01481327	      0.00137015	     17.25571516	     -2.51919831	     -3.33878349	    143.40947317	     31.69262090	    -15.90560814	    -24.99999983	     -3.84741614	    -15.33880512	      9.93148145	     44.11419475	     90.00000018	     -0.66032031	    -24.99999983
     43.29600000	     -5.69910286	      0.18902720	     -2.47555391	      0.52109734	      0.86624215	      0.11613468	     -2.32806337	     -1.01506123	      0.00190134	     17.25627509	     -2.51840755	     -3.33972263	    143.40877204	     31.69282172	    -15.90582009	    -24.99999983	     -3.84930409	    -15.33799213	      9.93221995	     44.11391766	     90.00000018	     -0.66022738	    -24.99999983
     43.30000000	     -5.69974216	      0.18903060	     -2.47394260	      0.52100589	      0.86623895	      0.11609432	     -2.32921028	     -1.01498998	      0.00374686	     17.25690198	     -2.51736351	     -3.34078539	    143.40748202	     31.69301129	    -15.90610499	    -24.99999983	     -3.85309531	    -15.33706924	      9.93331830	     44.11308775	     90.00000018	     -0.66009070	    -24.99999983
     43.30400000	     -5.70797436	      0.19081954	     -2.46765054	      0.52092982	      0.86623306	      0.11607370	     -2.33796491	     -1.01373861	      0.01034913	     17.26478975	     -2.51177210	     -3.34940501	    143.39796536	     31.69445208	    -15.90819469	    -24.99999983	     -3.87220216	    -15.32835727	      9.94159299	     44.10959595	     90.00000018	     -0.65903525	    -24.99999983
     43.30800000	     -5.69472280	      0.20751561	     -2.49140257	      0.52102873	      0.86623459	      0.11572562	     -2.32491827	     -0.99396779	     -0.01080867	     17.32223002	     -2.47440407	     -3.41710849	    143.33815487	     31.70833329	    -15.92424949	    -24.99999983	     -3.92927899	    -15.28290166	      9.98986268	     44.09828484	     90.00000018	     -0.65277673	    -24.99999983
     43.31200000	     -5.69399364	      0.20786535	     -2.49033303	      0.52095161	      0.86621549	      0.11572081	     -2.32471288	     -0.99362412	     -0.00971964	     17.32219202	     -2.47472226	     -3.41719480	    143.33744427	     31.70847025	    -15.92443863	    -24.99999983	     -3.93069692	    -15.28352275	      9.98991729	     44.09761519	     90.00000018	     -0.65279063	    -24.99999983
     43.31600000	     -5.69466199	      0.20799243	     -2.48794114	      0.52086922	      0.86622163	      0.11568226	     -2.32580063	     -0.99346891	     -0.00709936	     17.32252084	     -2.47504784	     -3.41722400	    143.33627280	     31.70860056	    -15.92467428	    -24.99999983	     -3.93395972	    -15.28457159	      9.99017024	     44.09633996	     90.00000018	     -0.65277723	    -24.99999983
